{"title":"Aquarion Evol ep 1-13","uid":9411282,"size":1242099824,"categoryP":"video","categoryS":"tv_shows","magnet":"?xt=urn:btih:8737a828f23c338d4cf3f0f7b233bb1fb7de3892&amp;dn=Aquarion+Evol+ep+1-13&amp;tr=udp%3A%2F%2Ftracker.openbittorrent.com%3A80&amp;tr=udp%3A%2F%2Fopen.demonii.com%3A1337&amp;tr=udp%3A%2F%2Ftracker.coppersurfer.tk%3A6969&amp;tr=udp%3A%2F%2Fexodus.desync.com%3A6969","seeders":1,"leechers":2,"uploader":"p7trick","files":-1,"time":1388302899,"description":"downloaded from watchcartoononline\n\nAquarion Evol ENGLISH DUBBED eps 1-13\n_________________________________________________________\n\nFormat                                   : MPEG-4\nFormat profile                           : Base Media\nCodec ID                                 : isom\nFile size                                : 113 MiB\nDuration                                 : 24mn 31s\nOverall bit rate                         : 641 Kbps\nWriting application                      : Lavf55.3.100\n\nVideo\nID                                       : 1\nFormat                                   : AVC\nFormat/Info                              : Advanced Video Codec\nFormat profile                           : &lt;a class=&quot;__cf_email__&quot; href=&quot;/cdn-cgi/l/email-protection&quot; data-cfemail=&quot;86c4e7f5e3eaefe8e3c6cab5a8b6&quot;&gt;[email&amp;#160;protected]&lt;/a&gt;&lt;script cf-hash='f9e31' type=&quot;text/javascript&quot;&gt;\n/* &lt;![CDATA[ */!function(){try{var t=&quot;currentScript&quot;in document?document.currentScript:function(){for(var t=document.getElementsByTagName(&quot;script&quot;),e=t.length;e--;)if(t[e].getAttribute(&quot;cf-hash&quot;))return t[e]}();if(t&amp;&amp;t.previousSibling){var e,r,n,i,c=t.previousSibling,a=c.getAttribute(&quot;data-cfemail&quot;);if(a){for(e=&quot;&quot;,r=parseInt(a.substr(0,2),16),n=2;a.length-n;n+=2)i=parseInt(a.substr(n,2),16)^r,e+=String.fromCharCode(i);e=document.createTextNode(e),c.parentNode.replaceChild(e,c)}}}catch(u){}}();/* ]]&gt; */&lt;/script&gt;\nFormat settings, CABAC                   : No\nFormat settings, ReFrames                : 5 frames\nCodec ID                                 : avc1\nCodec ID/Info                            : Advanced Video Coding\nDuration                                 : 24mn 31s\nBit rate                                 : 507 Kbps\nWidth                                    : 640 pixels\nHeight                                   : 362 pixels\nDisplay aspect ratio                     : 16:9\nOriginal display aspect ratio            : 16:9\nFrame rate mode                          : Constant\nFrame rate                               : 23.810 fps\nColor space                              : YUV\nChroma subsampling                       : 4:2:0\nBit depth                                : 8 bits\nScan type                                : Progressive\nBits/(Pixel*Frame)                       : 0.092\nStream size                              : 89.0 MiB (79%)\nWriting library                          : x264 core 130 r2274 c832fe9\nLanguage                                 : English\n\nAudio\nID                                       : 2\nFormat                                   : AAC\nFormat/Info                              : Advanced Audio Codec\nFormat profile                           : LC\nCodec ID                                 : 40\nDuration                                 : 24mn 31s\nBit rate mode                            : Constant\nBit rate                                 : 128 Kbps\nChannel(s)                               : 2 channels\nChannel positions                        : Front: L R\nSampling rate                            : 44.1 KHz\nCompression mode                         : Lossy\nStream size                              : 22.5 MiB (20%)\nLanguage                                 : English\n_________________________________________________________\n\nSummary:\n\nTwelve thousand years ago, after the fierce battles with Aquarions that became legendary... People are living in fear from the abduction of Abductors who descend from another dimension.\nAquarea, the joined weapon opposes to this. Dating and unification between guys and girls are prohibited even with that crafts as well as the elements candidates from the school.\nHowever the fateful encounter between the lonely guy Amata and a girl Mikono changes everything. Now love prohibited, new Unification Legend is ready to activate!\n\n\nFor updates/requests:\nTwitter - @p7tricktorrent\nFacebook - /p7tricktorrent\nTPB - /user/p7trick/\n_________________________________________________________\n\nSEED!\n\nshare ratio:\n&quot;Scumbag = 0.1:1\nLeecher = 0.999:1\nMinimum = 1:1\nGood = 3:1\nGreat = 5:1\nAwesome = 10:1\n1337 = 100:1&quot;\t\t","torrent":{"xt":"urn:btih:8737a828f23c338d4cf3f0f7b233bb1fb7de3892","amp;dn":"Aquarion+Evol+ep+1-13","amp;tr":["udp%3A%2F%2Ftracker.openbittorrent.com%3A80","udp%3A%2F%2Fopen.demonii.com%3A1337","udp%3A%2F%2Ftracker.coppersurfer.tk%3A6969","udp%3A%2F%2Fexodus.desync.com%3A6969"],"infoHash":"8737a828f23c338d4cf3f0f7b233bb1fb7de3892","infoHashBuffer":{"type":"Buffer","data":[135,55,168,40,242,60,51,141,76,243,240,247,178,51,187,31,183,222,56,146]},"announce":[],"urlList":[]}}